# xmcd CD database file
#
# Track frame offsets:
#	183
#	42108
#	118993
#	214583
#
# Disc length: 3630 seconds
#
# Revision: 0
# Processed by: cddbd v1.5.1PL0 Copyright (c) Steve Scherf et al.
# Submitted via: CDex 1.51
#
DISCID=330e2c04
DTITLE=The Gil Evans Orchestra featuring John McLaughlin - We Remember Jimi...
DYEAR=1900
DGENRE=Jazz
TTITLE0=Up From The Skies
TTITLE1=Little Wing
TTITLE2=There Comes A Time
TTITLE3=Stone Free
EXTD=
EXTT0=
EXTT1=
EXTT2=
EXTT3=
PLAYORDER=
